{"title":"Henry.of.Navarre.aka.Henri.4.2010.DVDRip.x264.DTS(5.1).NORDIC_SU","uid":5877425,"size":2228005978,"categoryP":"video","categoryS":"movies","magnet":"?xt=urn:btih:b240f230863076ef577fd1c5b91087b19f557dfd&amp;dn=Henry.of.Navarre.aka.Henri.4.2010.DVDRip.x264.DTS%285.1%29.NORDIC_SU&amp;tr=udp%3A%2F%2Ftracker.openbittorrent.com%3A80&amp;tr=udp%3A%2F%2Fopen.demonii.com%3A1337&amp;tr=udp%3A%2F%2Ftracker.coppersurfer.tk%3A6969&amp;tr=udp%3A%2F%2Fexodus.desync.com%3A6969","seeders":0,"leechers":1,"uploader":"Zen_Bud","files":-1,"time":1286700508,"description":"\n Henry.of.Navarre.aka.Henri.4.2010.DVDRip.x264.DTS(5.1).NORDIC_SUB.mkv-Zen_Bud \n\nFormat                           : Matroska\nFile size                        : 2.07 GiB\nDuration                         : 2h 28mn\nOverall bit rate                 : 2 002 Kbps\nWriting application              : HandBrake svn3586\nWriting library                  : libmkv 0.6.4.1\n\nVideo\n\nFormat                           : AVC\nDuration                         : 2h 28mn\nBit rate                         : 1 208 Kbps\nWidth                            : 720 pixels\nHeight                           : 436 pixels\nDisplay aspect ratio             : 2.35:1\nStream size                      : 1.25 GiB (60%)\nWriting library                  : x264 core 105\nLanguage                         : French\n\n\nAudio\n\nFormat                           : DTS\nDuration                         : 2h 28mn\nBit rate                         : 755 Kbps\nChannel(s)                       : 6 channels\nChannel positions                : Front: L C R, Side: L R, LFE\nSampling rate                    : 48.0 KHz\nBit depth                        : 16 bits\nStream size                      : 801 MiB (38%)\nLanguage                         : French\n\nText #1\n\nLanguage                         : Swedish\n\nText #2\nLanguage                         : Norwegian\n\nText #3\nLanguage                         : Danish\n\nText #4\nLanguage                         : Finnish\n\nMenu\n00:00:00.000                     : Chapter  1\n00:05:06.720                     : Chapter  2\n\n &lt;a href=&quot;\nhttp://www.henri-vier.com/&quot; rel=&quot;nofollow&quot; target=&quot;_NEW&quot;&gt;\nhttp://www.henri-vier.com/&lt;/a&gt;","torrent":{"xt":"urn:btih:b240f230863076ef577fd1c5b91087b19f557dfd","amp;dn":"Henry.of.Navarre.aka.Henri.4.2010.DVDRip.x264.DTS%285.1%29.NORDIC_SU","amp;tr":["udp%3A%2F%2Ftracker.openbittorrent.com%3A80","udp%3A%2F%2Fopen.demonii.com%3A1337","udp%3A%2F%2Ftracker.coppersurfer.tk%3A6969","udp%3A%2F%2Fexodus.desync.com%3A6969"],"infoHash":"b240f230863076ef577fd1c5b91087b19f557dfd","infoHashBuffer":{"type":"Buffer","data":[178,64,242,48,134,48,118,239,87,127,209,197,185,16,135,177,159,85,125,253]},"announce":[],"urlList":[]}}